#define analog_width 51
#define analog_height 51
static char analog_bits[] = {
   0x00, 0x00, 0x00, 0x00, 0x00, 0x00, 0x00, 0x00, 0x00, 0x00, 0x00, 0x00,
   0x00, 0x00, 0x00, 0x00, 0xe0, 0x3f, 0x00, 0x00, 0x00, 0x00, 0x00, 0x1e,
   0xc2, 0x03, 0x00, 0x00, 0x00, 0x80, 0x01, 0x02, 0x0c, 0x00, 0x00, 0x00,
   0x60, 0x00, 0x02, 0x30, 0x00, 0x00, 0x00, 0x90, 0x00, 0x02, 0x48, 0x00,
   0x00, 0x00, 0x8c, 0x00, 0x02, 0x88, 0x01, 0x00, 0x00, 0x02, 0x01, 0x02,
   0x04, 0x02, 0x00, 0x00, 0x01, 0x00, 0x02, 0x00, 0x04, 0x00, 0x80, 0x00,
   0x00, 0x07, 0x00, 0x08, 0x00, 0x80, 0x00, 0x00, 0x07, 0x00, 0x08, 0x00,
   0x40, 0x00, 0x00, 0x07, 0x00, 0x10, 0x00, 0x20, 0x00, 0x00, 0x07, 0x00,
   0x20, 0x00, 0x20, 0x00, 0x00, 0x07, 0x00, 0x20, 0x00, 0xd0, 0x00, 0x00,
   0x07, 0x00, 0x58, 0x00, 0x10, 0x01, 0x00, 0x07, 0x00, 0x44, 0x00, 0x08,
   0x00, 0x00, 0x07, 0x00, 0x80, 0x00, 0x08, 0x00, 0x00, 0x07, 0x00, 0x80,
   0x00, 0x08, 0x00, 0x00, 0x07, 0x00, 0x80, 0x00, 0x08, 0x00, 0x00, 0x07,
   0x00, 0x80, 0x00, 0x04, 0x00, 0x00, 0x07, 0x00, 0x00, 0x01, 0x04, 0x00,
   0x00, 0x07, 0x00, 0x00, 0x01, 0x04, 0x00, 0x00, 0xe2, 0x1f, 0x00, 0x01,
   0x04, 0x00, 0x00, 0xfa, 0x7f, 0x00, 0x01, 0xfc, 0x00, 0x00, 0xfe, 0xff,
   0xf8, 0x01, 0x04, 0x00, 0x00, 0xf8, 0x7f, 0x00, 0x01, 0x04, 0x00, 0x00,
   0xe0, 0x1f, 0x00, 0x01, 0x04, 0x00, 0x00, 0x00, 0x00, 0x00, 0x01, 0x04,
   0x00, 0x00, 0x00, 0x00, 0x00, 0x01, 0x08, 0x00, 0x00, 0x00, 0x00, 0x80,
   0x00, 0x08, 0x00, 0x00, 0x00, 0x00, 0x80, 0x00, 0x08, 0x00, 0x00, 0x00,
   0x00, 0x80, 0x00, 0x08, 0x00, 0x00, 0x00, 0x00, 0x80, 0x00, 0x10, 0x01,
   0x00, 0x00, 0x00, 0x44, 0x00, 0xd0, 0x00, 0x00, 0x00, 0x00, 0x58, 0x00,
   0x20, 0x00, 0x00, 0x00, 0x00, 0x20, 0x00, 0x20, 0x00, 0x00, 0x00, 0x00,
   0x20, 0x00, 0x40, 0x00, 0x00, 0x00, 0x00, 0x10, 0x00, 0x80, 0x00, 0x00,
   0x00, 0x00, 0x08, 0x00, 0x80, 0x00, 0x00, 0x00, 0x00, 0x08, 0x00, 0x00,
   0x01, 0x00, 0x00, 0x00, 0x04, 0x00, 0x00, 0x02, 0x01, 0x00, 0x04, 0x02,
   0x00, 0x00, 0x8c, 0x00, 0x02, 0x88, 0x01, 0x00, 0x00, 0x90, 0x00, 0x02,
   0x48, 0x00, 0x00, 0x00, 0x60, 0x00, 0x02, 0x30, 0x00, 0x00, 0x00, 0x80,
   0x01, 0x02, 0x0c, 0x00, 0x00, 0x00, 0x00, 0x1e, 0xc2, 0x03, 0x00, 0x00,
   0x00, 0x00, 0xe0, 0x3f, 0x00, 0x00, 0x00, 0x00, 0x00, 0x00, 0x00, 0x00,
   0x00, 0x00, 0x00, 0x00, 0x00, 0x00, 0x00, 0x00, 0x00};
