#define bell_width 15
#define bell_height 15
static char bell_bits[] = {
   0x00, 0x00, 0x06, 0x00, 0x0e, 0x00, 0x1c, 0x00, 0xf8, 0x00, 0x30, 0x03,
   0x10, 0x0c, 0x10, 0x30, 0x20, 0x2c, 0x20, 0x22, 0x40, 0x17, 0x40, 0x0f,
   0x80, 0x04, 0x80, 0x03, 0x00, 0x00};
